<svg xmlns="http://www.w3.org/2000/svg" xmlns:xlink="http://www.w3.org/1999/xlink" width="500" height="500" preserveAspectRatio="xMidYMid meet" version="1.0" viewBox="0 0 375 375" zoomAndPan="magnify"><defs><clipPath id="4c20aa0e0f"><path d="M 69.800781 122.753906 L 305.628906 122.753906 L 305.628906 252.117188 L 69.800781 252.117188 Z M 69.800781 122.753906" clip-rule="nonzero"/></clipPath><clipPath id="c503ea2eaf"><path d="M 82.503906 134.921875 L 187.5 134.921875 L 187.5 240.078125 L 82.503906 240.078125 Z M 82.503906 134.921875" clip-rule="nonzero"/></clipPath></defs><rect width="450" height="450" x="-37.5" y="-37.5" fill="#fff" fill-opacity="1"/><rect width="450" height="450" x="-37.5" y="-37.5" fill="#fff" fill-opacity="1"/><rect width="450" height="450" x="-37.5" y="-37.5" fill="#fff" fill-opacity="1"/><g clip-path="url(#4c20aa0e0f)"><path fill="none" stroke="#000" stroke-linecap="butt" stroke-linejoin="miter" stroke-miterlimit="4" stroke-opacity="1" stroke-width="3.339" d="M -0.000757469 -0.00128302 L 174.672494 -0.00128302 L 174.672494 96.089292 L -0.000757469 96.089292 L -0.000757469 -0.00128302" transform="matrix(1.35011, 0, 0, 1.346264, 69.801804, 122.755634)"/></g><g clip-path="url(#c503ea2eaf)"><path fill="#000" fill-opacity="1" fill-rule="nonzero" d="M 82.503906 134.921875 L 188.742188 134.921875 L 188.742188 241.15625 L 82.503906 241.15625 Z M 82.503906 134.921875"/></g><g fill="#1cbeb2" fill-opacity="1"><g><g><path d="M 4.238281 0 L 28.007812 0 L 28.007812 -6.8125 L 12.214844 -6.8125 L 12.214844 -14.535156 L 26.089844 -14.535156 L 26.089844 -21.246094 L 12.214844 -21.246094 L 12.214844 -28.5625 L 27.453125 -28.5625 L 27.453125 -35.328125 L 4.238281 -35.328125 Z M 4.238281 0" transform="translate(119.715766, 203.883445)"/></g></g></g><g fill="#ff757c" fill-opacity="1"><g><g><path d="M 20.589844 0.757812 C 32.753906 0.757812 40.375 -8.074219 39.261719 -20.488281 L 18.824219 -20.488281 L 18.824219 -13.324219 L 28.5625 -13.324219 C 27.554688 -10.34375 24.730469 -8.328125 20.691406 -8.328125 C 15.039062 -8.328125 11.757812 -12.3125 11.757812 -17.664062 C 11.757812 -23.214844 15.34375 -27 20.589844 -27 C 23.71875 -27 26.394531 -25.636719 27.757812 -23.417969 L 38.605469 -23.417969 C 36.539062 -31.136719 29.371094 -36.082031 20.4375 -36.082031 C 9.335938 -36.082031 1.714844 -28.515625 1.714844 -17.664062 C 1.714844 -6.761719 9.386719 0.757812 20.589844 0.757812 Z M 20.589844 0.757812" transform="translate(227.135318, 203.883445)"/></g></g></g></svg>